<?xml version="1.0" standalone="no"?>
        <!DOCTYPE svg PUBLIC "-//W3C//DTD SVG 1.1//EN" 
        "http://www.w3.org/Graphics/SVG/1.1/DTD/svg11.dtd">  <svg xmlns="http://www.w3.org/2000/svg" xmlns:xlink="http://www.w3.org/1999/xlink" width="40" zoomAndPan="magnify" viewBox="0 0 30 30.000001" height="40" preserveAspectRatio="xMidYMid meet" version="1.0"><defs><clipPath id="id1"><path d="M 2.597656 5.847656 L 26.550781 5.847656 L 26.550781 23.269531 L 2.597656 23.269531 Z M 2.597656 5.847656 " clip-rule="nonzero"/></clipPath><clipPath id="id2"><path d="M 2.597656 5.847656 L 26.550781 5.847656 L 26.550781 15 L 2.597656 15 Z M 2.597656 5.847656 " clip-rule="nonzero"/></clipPath></defs><g clip-path="url(#id1)"><path fill="rgb(82.348633%, 10.978699%, 19.999695%)" d="M 26.542969 20.589844 C 26.542969 22.070312 25.351562 23.269531 23.882812 23.269531 L 5.265625 23.269531 C 3.796875 23.269531 2.605469 22.070312 2.605469 20.589844 L 2.605469 8.527344 C 2.605469 7.050781 3.796875 5.847656 5.265625 5.847656 L 23.882812 5.847656 C 25.351562 5.847656 26.542969 7.050781 26.542969 8.527344 Z M 26.542969 20.589844 " fill-opacity="1" fill-rule="nonzero"/></g><g clip-path="url(#id2)"><path fill="rgb(0%, 12.548828%, 62.348938%)" d="M 23.882812 5.847656 L 5.265625 5.847656 C 3.796875 5.847656 2.605469 7.050781 2.605469 8.527344 L 2.605469 14.558594 L 26.542969 14.558594 L 26.542969 8.527344 C 26.542969 7.050781 25.351562 5.847656 23.882812 5.847656 Z M 23.882812 5.847656 " fill-opacity="1" fill-rule="nonzero"/></g><path fill="rgb(100%, 100%, 100%)" d="M 10.585938 11.238281 L 18.5 11.238281 L 18.5 17.910156 L 10.585938 17.910156 Z M 10.585938 11.238281 " fill-opacity="1" fill-rule="nonzero"/><path fill="rgb(0%, 41.569519%, 8.628845%)" d="M 18.5 16.984375 C 17.503906 16.476562 16.15625 16.15625 14.578125 16.15625 C 13.003906 16.15625 11.582031 16.476562 10.585938 16.984375 L 10.585938 17.910156 L 18.5 17.910156 Z M 18.5 16.984375 " fill-opacity="1" fill-rule="nonzero"/><path fill="rgb(0%, 12.548828%, 62.348938%)" d="M 12.929688 13.703125 L 13.703125 14.578125 L 13.605469 15.128906 L 13.4375 15.035156 L 13.285156 15.609375 L 13.246094 15.609375 L 13.175781 15.914062 L 11.859375 15.800781 L 11.894531 14.855469 L 12.210938 14.945312 L 12.25 14.0625 L 12.710938 14.378906 L 12.730469 13.84375 Z M 12.929688 13.703125 " fill-opacity="1" fill-rule="nonzero"/><path fill="rgb(82.348633%, 10.978699%, 19.999695%)" d="M 14.578125 15.417969 L 14.578125 16.757812 L 13.582031 16.464844 L 13.328125 16.089844 L 13.152344 15.960938 L 13.246094 15.621094 L 13.398438 15.035156 L 13.628906 15.035156 L 13.683594 14.539062 Z M 11.710938 14.8125 C 11.828125 14.667969 12.050781 14.761719 12.058594 14.8125 C 12.066406 14.859375 11.972656 14.851562 11.882812 14.929688 C 11.796875 15.011719 11.820312 15.257812 11.671875 15.226562 C 11.519531 15.195312 11.710938 14.8125 11.710938 14.8125 Z M 12.25 14.0625 C 12.402344 13.960938 12.589844 14.113281 12.582031 14.160156 C 12.578125 14.210938 12.488281 14.175781 12.382812 14.226562 C 12.277344 14.28125 12.230469 14.523438 12.097656 14.453125 C 11.960938 14.378906 12.25 14.0625 12.25 14.0625 Z M 12.882812 13.605469 C 13.046875 13.523438 13.214844 13.699219 13.203125 13.746094 C 13.191406 13.792969 13.074219 13.710938 12.964844 13.75 C 12.851562 13.789062 12.808594 14.0625 12.683594 13.972656 C 12.554688 13.882812 12.882812 13.605469 12.882812 13.605469 Z M 12.882812 13.605469 " fill-opacity="1" fill-rule="nonzero"/><path fill="rgb(94.509888%, 70.979309%, 9.01947%)" d="M 12.542969 13.234375 L 13.058594 13.550781 L 13 13.703125 L 14.390625 15.25 L 14.390625 15.371094 L 12.945312 13.742188 L 12.757812 13.710938 Z M 11.804688 13.703125 C 11.804688 13.703125 12.320312 13.902344 12.320312 13.925781 C 12.320312 13.949219 12.414062 14.109375 12.414062 14.109375 L 14.292969 15.640625 L 14.238281 15.714844 L 12.375 14.179688 L 12.105469 14.0625 Z M 11.257812 14.488281 C 11.257812 14.488281 11.851562 14.570312 11.863281 14.597656 C 11.871094 14.621094 11.910156 14.757812 11.910156 14.757812 L 14.085938 15.953125 L 13.992188 16.007812 L 11.871094 14.828125 L 11.625 14.8125 Z M 11.257812 14.488281 " fill-opacity="1" fill-rule="nonzero"/><path fill="rgb(94.509888%, 70.979309%, 9.01947%)" d="M 11.773438 15.625 L 14.011719 15.902344 L 13.800781 16.160156 L 13.46875 16.191406 L 13.71875 16.527344 L 13.597656 16.664062 L 13.265625 16.296875 C 13.265625 16.296875 13.160156 16.832031 12.710938 16.832031 C 12.257812 16.832031 12.113281 16.375 12.113281 16.222656 C 12.113281 16.070312 12.15625 15.992188 12.15625 15.992188 L 11.726562 15.992188 Z M 11.773438 15.625 " fill-opacity="1" fill-rule="nonzero"/><path fill="rgb(0%, 12.548828%, 62.348938%)" d="M 16.199219 13.652344 L 15.390625 14.621094 L 15.425781 15.179688 L 15.632812 15.035156 L 15.78125 15.609375 L 15.824219 15.609375 L 15.894531 15.914062 L 17.210938 15.800781 L 17.175781 14.855469 L 16.859375 14.945312 L 16.820312 14.0625 L 16.363281 14.378906 L 16.335938 13.84375 Z M 16.199219 13.652344 " fill-opacity="1" fill-rule="nonzero"/><path fill="rgb(82.348633%, 10.978699%, 19.999695%)" d="M 14.578125 15.417969 L 14.578125 16.757812 L 15.53125 16.464844 L 15.765625 16.089844 L 15.929688 15.960938 L 15.828125 15.621094 L 15.671875 15.035156 L 15.496094 15.167969 L 15.433594 14.621094 Z M 17.359375 14.8125 C 17.238281 14.667969 17.019531 14.761719 17.011719 14.8125 C 17.003906 14.859375 17.097656 14.851562 17.183594 14.929688 C 17.273438 15.011719 17.25 15.257812 17.398438 15.226562 C 17.550781 15.195312 17.359375 14.8125 17.359375 14.8125 Z M 16.820312 14.0625 C 16.667969 13.960938 16.480469 14.113281 16.488281 14.160156 C 16.492188 14.210938 16.582031 14.175781 16.6875 14.226562 C 16.792969 14.28125 16.835938 14.523438 16.972656 14.453125 C 17.109375 14.378906 16.820312 14.0625 16.820312 14.0625 Z M 16.1875 13.605469 C 16.023438 13.523438 15.855469 13.699219 15.867188 13.746094 C 15.878906 13.792969 15.996094 13.710938 16.105469 13.75 C 16.21875 13.789062 16.261719 14.0625 16.390625 13.972656 C 16.515625 13.882812 16.1875 13.605469 16.1875 13.605469 Z M 16.1875 13.605469 " fill-opacity="1" fill-rule="nonzero"/><path fill="rgb(94.509888%, 70.979309%, 9.01947%)" d="M 16.527344 13.234375 L 16.011719 13.550781 L 16.113281 13.703125 L 14.769531 15.25 L 14.769531 15.371094 L 16.167969 13.742188 L 16.335938 13.710938 Z M 17.265625 13.703125 C 17.265625 13.703125 16.75 13.902344 16.75 13.925781 C 16.75 13.949219 16.65625 14.109375 16.65625 14.109375 L 14.777344 15.640625 L 14.832031 15.714844 L 16.695312 14.179688 L 16.964844 14.0625 Z M 17.8125 14.488281 C 17.8125 14.488281 17.214844 14.570312 17.210938 14.597656 C 17.199219 14.621094 17.160156 14.757812 17.160156 14.757812 L 14.984375 15.953125 L 15.078125 16.007812 L 17.203125 14.828125 L 17.449219 14.8125 Z M 17.8125 14.488281 " fill-opacity="1" fill-rule="nonzero"/><path fill="rgb(94.509888%, 70.979309%, 9.01947%)" d="M 17.296875 15.625 L 15.058594 15.902344 L 15.269531 16.160156 L 15.601562 16.191406 L 15.351562 16.527344 L 15.472656 16.664062 L 15.808594 16.296875 C 15.808594 16.296875 15.910156 16.832031 16.363281 16.832031 C 16.8125 16.832031 16.957031 16.375 16.957031 16.222656 C 16.957031 16.074219 16.917969 15.992188 16.917969 15.992188 L 17.34375 15.992188 Z M 17.296875 15.625 " fill-opacity="1" fill-rule="nonzero"/><path fill="rgb(100%, 100%, 100%)" d="M 17.804688 17.335938 C 17.804688 17.335938 17.414062 17.347656 17.003906 17.257812 C 16.589844 17.167969 16.519531 17.003906 16.339844 17.042969 C 16.160156 17.078125 15.746094 17.234375 15.40625 17.277344 C 15.066406 17.320312 14.578125 17.335938 14.578125 17.335938 C 14.578125 17.335938 14.128906 17.320312 13.789062 17.277344 C 13.449219 17.234375 13.070312 17.078125 12.894531 17.042969 C 12.714844 17.003906 12.640625 17.167969 12.230469 17.257812 C 11.816406 17.347656 11.425781 17.335938 11.425781 17.335938 L 11.53125 17.527344 L 11.425781 17.621094 C 12.355469 17.636719 12.785156 17.335938 12.785156 17.335938 C 13.25 17.644531 14.578125 17.652344 14.578125 17.652344 C 14.578125 17.652344 15.945312 17.644531 16.410156 17.335938 C 16.410156 17.335938 16.859375 17.636719 17.792969 17.621094 L 17.691406 17.527344 Z M 17.804688 17.335938 " fill-opacity="1" fill-rule="nonzero"/><path fill="rgb(94.509888%, 70.979309%, 9.01947%)" d="M 14.769531 14.488281 C 14.769531 15.484375 14.683594 16.296875 14.574219 16.296875 C 14.46875 16.296875 14.378906 15.484375 14.378906 14.488281 C 14.378906 13.488281 14.46875 12.679688 14.574219 12.679688 C 14.683594 12.679688 14.769531 13.488281 14.769531 14.488281 Z M 14.769531 14.488281 " fill-opacity="1" fill-rule="nonzero"/><path fill="rgb(82.348633%, 10.978699%, 19.999695%)" d="M 14.199219 16.183594 L 14.960938 16.183594 L 14.960938 16.953125 L 14.199219 16.953125 Z M 14.199219 16.183594 " fill-opacity="1" fill-rule="nonzero"/><path fill="rgb(100%, 100%, 100%)" d="M 15.007812 16.136719 C 15.007812 16.222656 14.824219 16.296875 14.597656 16.296875 C 14.371094 16.296875 14.191406 16.222656 14.191406 16.136719 C 14.191406 16.046875 14.371094 15.976562 14.597656 15.976562 C 14.824219 15.976562 15.007812 16.046875 15.007812 16.136719 Z M 15.007812 16.136719 " fill-opacity="1" fill-rule="nonzero"/><path fill="rgb(82.348633%, 10.978699%, 19.999695%)" d="M 15.007812 16.902344 C 15.007812 16.992188 14.824219 17.0625 14.597656 17.0625 C 14.371094 17.0625 14.191406 16.992188 14.191406 16.902344 C 14.191406 16.8125 14.371094 16.742188 14.597656 16.742188 C 14.824219 16.742188 15.007812 16.8125 15.007812 16.902344 Z M 15.007812 16.902344 " fill-opacity="1" fill-rule="nonzero"/><path fill="rgb(0%, 41.569519%, 8.628845%)" d="M 16.246094 12.34375 C 16.09375 12.160156 15.703125 12.167969 15.4375 12.160156 C 15.171875 12.152344 15.035156 12.25 15.15625 12.121094 C 15.273438 11.992188 15.457031 12.027344 15.652344 12.015625 C 15.847656 12.007812 15.878906 11.984375 15.761719 11.921875 C 15.640625 11.859375 15.433594 11.777344 15.15625 11.851562 C 14.882812 11.921875 14.710938 12.09375 14.566406 12.121094 C 14.421875 12.09375 14.242188 11.921875 13.96875 11.851562 C 13.691406 11.777344 13.476562 11.859375 13.359375 11.921875 C 13.238281 11.984375 13.273438 12.007812 13.464844 12.015625 C 13.660156 12.023438 13.839844 11.992188 13.960938 12.121094 C 14.078125 12.25 13.945312 12.152344 13.679688 12.160156 C 13.414062 12.167969 13.023438 12.160156 12.871094 12.34375 C 12.71875 12.527344 13 12.40625 13.152344 12.382812 C 13.304688 12.359375 13.523438 12.351562 13.523438 12.351562 C 13.523438 12.351562 13.152344 12.464844 13.050781 12.605469 C 12.945312 12.75 13.082031 12.878906 13.273438 12.765625 C 13.460938 12.65625 13.753906 12.503906 13.914062 12.488281 C 13.914062 12.488281 13.5 12.660156 13.320312 12.808594 C 13.136719 12.960938 13.328125 12.941406 13.464844 12.941406 C 13.605469 12.941406 13.746094 12.886719 13.867188 12.800781 C 13.984375 12.710938 13.785156 12.972656 13.753906 13.144531 C 13.722656 13.308594 13.96875 13.269531 14.011719 13.144531 C 14.054688 13.015625 14.199219 12.757812 14.199219 12.757812 C 14.199219 12.757812 14.136719 13.125 14.144531 13.375 C 14.152344 13.621094 14.230469 13.636719 14.296875 13.527344 C 14.359375 13.414062 14.578125 13.59375 14.578125 13.59375 C 14.578125 13.59375 14.777344 13.414062 14.839844 13.527344 C 14.90625 13.636719 14.964844 13.621094 14.972656 13.375 C 14.980469 13.128906 14.917969 12.757812 14.917969 12.757812 C 14.917969 12.757812 15.058594 13.015625 15.101562 13.144531 C 15.148438 13.269531 15.394531 13.308594 15.359375 13.144531 C 15.328125 12.976562 15.132812 12.710938 15.25 12.800781 C 15.371094 12.886719 15.511719 12.941406 15.648438 12.941406 C 15.789062 12.941406 15.980469 12.960938 15.796875 12.808594 C 15.617188 12.660156 15.203125 12.488281 15.203125 12.488281 C 15.363281 12.503906 15.65625 12.65625 15.84375 12.765625 C 16.035156 12.878906 16.167969 12.75 16.066406 12.605469 C 15.964844 12.464844 15.589844 12.351562 15.589844 12.351562 C 15.589844 12.351562 15.8125 12.359375 15.964844 12.382812 C 16.113281 12.410156 16.398438 12.527344 16.246094 12.34375 Z M 16.246094 12.34375 " fill-opacity="1" fill-rule="nonzero"/></svg>  